<svg width="779" height="964" viewBox="0 0 779 964" fill="none" xmlns="http://www.w3.org/2000/svg">
<path d="M42.1941 41H534.194V39H42.1941V41ZM535.194 42V534H537.194V42H535.194ZM534.194 535H42.1941V537H534.194V535ZM41.1941 534V42H39.1941V534H41.1941ZM42.1941 535C41.6418 535 41.1941 534.552 41.1941 534H39.1941C39.1941 535.657 40.5372 537 42.1941 537V535ZM535.194 534C535.194 534.552 534.746 535 534.194 535V537C535.851 537 537.194 535.657 537.194 534H535.194ZM534.194 41C534.746 41 535.194 41.4477 535.194 42H537.194C537.194 40.3431 535.851 39 534.194 39V41ZM42.1941 39C40.5372 39 39.1941 40.3431 39.1941 42H41.1941C41.1941 41.4477 41.6418 41 42.1941 41V39Z" fill="black" fill-opacity="0.08"/>
<path d="M244.194 429H736.194V427H244.194V429ZM737.194 430V922H739.194V430H737.194ZM736.194 923H244.194V925H736.194V923ZM243.194 922V430H241.194V922H243.194ZM244.194 923C243.642 923 243.194 922.552 243.194 922H241.194C241.194 923.657 242.537 925 244.194 925V923ZM737.194 922C737.194 922.552 736.746 923 736.194 923V925C737.851 925 739.194 923.657 739.194 922H737.194ZM736.194 429C736.746 429 737.194 429.448 737.194 430H739.194C739.194 428.343 737.851 427 736.194 427V429ZM244.194 427C242.537 427 241.194 428.343 241.194 430H243.194C243.194 429.448 243.642 429 244.194 429V427Z" fill="black" fill-opacity="0.08"/>
</svg>